<?xml version="1.0" encoding="utf-8" ?>
<svg xmlns="http://www.w3.org/2000/svg" xmlns:xlink="http://www.w3.org/1999/xlink" width="2017" height="2017">
	<path fill="#368EF0" transform="scale(3.94116 3.94116)" d="M122.393 72.1034Q122.946 72.0681 123.499 72.0559C130.04 71.8993 136.587 72.126 143.128 72.1474L179.523 72.1592L301.078 72.1587L359.908 72.1488C371.521 72.1478 385.472 71.348 396.826 73.2384Q398.728 73.5427 400.6 73.9937Q402.472 74.4448 404.303 75.04Q406.135 75.6351 407.915 76.3707Q409.694 77.1064 411.412 77.978Q413.129 78.8497 414.773 79.8521Q416.418 80.8545 417.979 81.9816Q419.54 83.1087 421.01 84.3537Q422.479 85.5987 423.847 86.9541C437.798 100.51 439.325 117.307 439.511 135.653L439.521 194.647L439.522 312.358L439.531 364.713C439.532 376.019 440.297 387.982 438.439 399.15Q438.152 400.935 437.727 402.691Q437.303 404.448 436.744 406.167Q436.185 407.886 435.494 409.556Q434.803 411.227 433.985 412.839Q433.168 414.451 432.227 415.994Q431.287 417.538 430.23 419.004Q429.173 420.47 428.006 421.85Q426.839 423.23 425.568 424.516C415.891 434.271 403.004 438.983 389.364 439.028L201.847 439.038L151.678 439.046C139.479 439.128 127.106 440.176 114.987 438.347C105.573 436.926 97.0293 432.804 89.8363 426.589C79.7546 417.877 73.8445 406.132 72.9117 392.844C72.3928 385.452 72.5703 378.019 72.5755 370.614L72.5902 337.592L72.5973 232.741L72.5693 158.294L72.5667 137.169C72.5695 129.087 72.5404 121.039 73.7347 113.026C75.0708 104.063 79.0689 95.901 85.0216 89.0971C94.6987 78.0361 108.011 73.0878 122.393 72.1034ZM351.384 183.613C341.864 183.979 332.276 183.753 322.748 183.744C314.161 183.735 305.308 183.273 296.949 185.588C290.312 187.426 283.497 191.511 278.792 196.542C270.272 205.654 266.039 218.376 266.566 230.757C267.034 241.745 271.026 253.271 279.314 260.87C284.416 265.547 290.972 269.169 297.757 270.646C306.95 272.648 319.193 272.037 328.682 271.923C333.287 271.867 338.779 271.045 343.187 272.505C347.875 274.057 351.191 278.105 351.442 283.1C351.6 286.253 350.359 289.425 348.221 291.737C344.734 295.506 339.617 295.651 334.817 295.741C330.712 295.819 326.606 295.608 322.501 295.587L296.691 295.568C290.487 295.568 283.546 294.86 277.509 296.434C274.816 297.136 272.362 298.821 270.451 300.822C267.457 303.956 265.902 308.517 266.058 312.828C266.209 317.014 268.048 321.32 271.128 324.183C276.448 329.126 283.965 328.339 290.688 328.118C300.358 327.866 310.058 328.021 319.733 328.023C330.435 328.025 342.334 328.848 352.599 325.486C359.469 323.237 365.579 318.82 370.502 313.598C378.868 304.724 382.937 293.704 382.56 281.537C382.199 269.884 377.497 258.804 368.883 250.823Q367.749 249.777 366.541 248.818Q365.333 247.858 364.058 246.99Q362.783 246.122 361.447 245.351Q360.111 244.579 358.722 243.908Q357.333 243.238 355.898 242.671Q354.463 242.104 352.991 241.645Q351.518 241.186 350.016 240.836Q348.513 240.487 346.989 240.249C335.879 238.416 311.972 241.961 303.702 237.928C300.002 236.125 297.924 232.257 297.751 228.216C297.646 225.768 298.85 221.216 300.627 219.371C305.467 214.347 316.283 215.751 322.772 215.863Q333.364 216.017 343.957 215.976C349.951 215.991 356.872 216.644 362.709 215.18Q363.887 214.877 365.016 214.422Q366.145 213.968 367.205 213.37Q368.265 212.773 369.238 212.042Q370.211 211.311 371.081 210.46C374.03 207.576 375.584 203.747 375.601 199.633C375.619 195.333 373.915 191.355 370.864 188.336C366.414 183.935 361.203 183.434 355.243 183.52Q353.313 183.542 351.384 183.613Z"/>
	<path fill="#FEFEFE" transform="scale(3.94116 3.94116)" d="M224.553 183.372C230.958 183.253 237.98 183.231 242.876 188.019C246.007 191.082 247.619 195.368 247.614 199.719Q247.621 200.528 247.548 201.333Q247.475 202.139 247.323 202.933Q247.171 203.728 246.941 204.503Q246.712 205.279 246.407 206.028Q246.101 206.777 245.724 207.492Q245.346 208.207 244.9 208.882Q244.454 209.556 243.943 210.183Q243.432 210.81 242.862 211.384Q242.102 212.134 241.248 212.774Q240.394 213.415 239.461 213.934Q238.528 214.453 237.533 214.841Q236.539 215.23 235.501 215.48C231.216 216.536 226.432 216.041 222.049 216.03L205.462 216.014C205.697 237.33 205.506 258.669 205.51 279.987L205.513 300.135C205.513 304.455 205.723 308.898 205.157 313.186C204.7 316.647 203.739 319.677 201.552 322.441C198.767 325.96 194.762 328.292 190.278 328.751Q189.387 328.834 188.493 328.83Q187.598 328.826 186.709 328.735Q185.819 328.644 184.942 328.467Q184.065 328.29 183.21 328.029Q182.355 327.767 181.529 327.424Q180.703 327.081 179.914 326.659Q179.126 326.236 178.382 325.74Q177.638 325.243 176.946 324.676C172.308 320.802 171.322 315.798 170.775 310.063C170.391 299.116 170.694 288.073 170.697 277.115L170.736 216.015Q164.058 215.98 157.381 216.052C149.764 216.151 139.868 217.44 133.825 211.76C130.762 208.881 129.075 204.615 128.906 200.45C128.737 196.274 130.153 191.854 133.042 188.794C135.634 186.049 139.072 184.53 142.747 183.867C146.662 183.16 150.72 183.433 154.681 183.46L169.557 183.547Q197.056 183.802 224.553 183.372Z"/>
</svg>
